<svg width="16" height="17" viewBox="0 0 16 17" fill="none" xmlns="http://www.w3.org/2000/svg">
<path d="M8 2.11799C9.16 2.11799 10.1 3.05799 10.1 4.21799C10.1 5.37799 9.16 6.31799 8 6.31799C6.84 6.31799 5.9 5.37799 5.9 4.21799C5.9 3.05799 6.84 2.11799 8 2.11799ZM8 11.118C10.97 11.118 14.1 12.578 14.1 13.218V14.318H1.9V13.218C1.9 12.578 5.03 11.118 8 11.118ZM8 0.217987C5.79 0.217987 4 2.00799 4 4.21799C4 6.42799 5.79 8.21799 8 8.21799C10.21 8.21799 12 6.42799 12 4.21799C12 2.00799 10.21 0.217987 8 0.217987ZM8 9.21799C5.33 9.21799 0 10.558 0 13.218V16.218H16V13.218C16 10.558 10.67 9.21799 8 9.21799Z" fill="#E3E3E3" fill-opacity="0.8"/>
</svg>
