<svg width="16" height="22" viewBox="0 0 16 22" fill="none" xmlns="http://www.w3.org/2000/svg">
<path d="M14 7.96023H13V5.96023C13 3.20023 10.76 0.960234 8 0.960234C5.24 0.960234 3 3.20023 3 5.96023V7.96023H2C0.9 7.96023 0 8.86023 0 9.96023V19.9602C0 21.0602 0.9 21.9602 2 21.9602H14C15.1 21.9602 16 21.0602 16 19.9602V9.96023C16 8.86023 15.1 7.96023 14 7.96023ZM5 5.96023C5 4.30023 6.34 2.96023 8 2.96023C9.66 2.96023 11 4.30023 11 5.96023V7.96023H5V5.96023ZM14 19.9602H2V9.96023H14V19.9602ZM8 16.9602C9.1 16.9602 10 16.0602 10 14.9602C10 13.8602 9.1 12.9602 8 12.9602C6.9 12.9602 6 13.8602 6 14.9602C6 16.0602 6.9 16.9602 8 16.9602Z" fill="#E3E3E3" fill-opacity="0.8"/>
</svg>
